<?xml version="1.0" encoding="UTF-8" standalone="no"?>
<!-- Created with Inkscape (http://www.inkscape.org/) -->

<svg
   width="192.17282mm"
   height="270.14276mm"
   viewBox="0 0 192.17282 270.14276"
   version="1.1"
   id="svg1"
   xml:space="preserve"
   xmlns="http://www.w3.org/2000/svg"
   xmlns:svg="http://www.w3.org/2000/svg"><defs
     id="defs1" /><g
     id="layer1"
     transform="translate(-4.843634,-14.494533)"><path
       style="fill:#000000"
       d="m 89.815517,284.22593 c 0,-0.22636 -0.09681,-0.31476 -0.215145,-0.19643 -0.118329,0.11833 -0.832704,-0.1747 -1.5875,-0.65118 -0.754795,-0.47648 -1.374786,-0.74528 -1.377757,-0.59732 -0.003,0.14795 -0.122033,0.11026 -0.264583,-0.0838 -0.326008,-0.44374 -1.723957,-1.23472 -2.18219,-1.23472 -0.189795,0 -1.819136,-0.84558 -3.62076,-1.87907 -2.92102,-1.67562 -4.31592,-2.3943 -4.86318,-2.50559 -0.097,-0.0197 -0.39001,-0.17126 -0.65112,-0.33674 -0.2611,-0.16547 -2.5894,-0.42221 -5.174,-0.57052 -4.93316,-0.28307 -4.87836,-0.26439 -7.08157,-2.41349 -1.15857,-1.13013 -3.67386,-5.03714 -3.67386,-5.70664 0,-0.66756 -1.29139,-1.04078 -1.94572,-0.56232 -0.54776,0.40053 -0.59904,0.78697 -0.38437,2.89675 0.13625,1.33901 0.33281,3.30769 0.43681,4.37484 0.10401,1.06715 0.31274,2.42406 0.46386,3.01536 0.23822,0.93212 0.17777,1.08239 -0.45457,1.13002 -0.40113,0.0302 -0.93508,-0.11582 -1.18656,-0.32453 -0.25147,-0.2087 -0.45723,-0.27303 -0.45723,-0.14293 0,0.13009 -0.71936,-0.25841 -1.59859,-0.86333 -2.03222,-1.3982 -3.29511,-3.39969 -3.77569,-5.9839 l -0.3784,-2.0347 -1.1806,0.69657 c -0.64933,0.38312 -1.18061,0.83964 -1.18061,1.01451 0,0.17486 -0.15566,0.31793 -0.34592,0.31793 -0.19026,0 -1.20757,0.55118 -2.26069,1.22485 -4.79697,3.06859 -8.32024,3.72499 -10.88475,2.02788 -0.73681,-0.4876 -1.27388,-0.9523 -1.1935,-1.03268 0.0804,-0.0804 -0.20741,-0.4997 -0.63952,-0.93181 -0.72295,-0.72295 -1.37765,-2.8941 -2.2501,-7.46185 -0.34647,-1.81396 -1.24214,-1.98566 -2.82021,-0.54064 -0.64256,0.58839 -1.27756,1.07193 -1.41111,1.07454 -0.22669,0.004 -0.68532,0.34171 -3.23442,2.37873 -1.00231,0.80096 -2.46324,0.76627 -1.82805,-0.0434 0.28212,-0.35962 0.44739,-1.13335 0.98966,-4.63311 0.0902,-0.58208 0.30285,-1.53458 0.47259,-2.11667 0.5993,-2.05523 1.13597,-6.24301 0.83723,-6.53315 -0.16612,-0.16134 -1.70028,-0.12839 -3.40924,0.0732 -3.60013,0.42474 -5.70459,0.0213 -6.98216,-1.33865 -0.4349,-0.46293 -0.72396,-0.88768 -0.64235,-0.94388 1.81411,-1.24927 4.62604,-3.02138 5.44004,-3.42838 0.58209,-0.29104 1.21709,-0.65403 1.41111,-0.80663 0.19403,-0.15261 1.01947,-0.75577 1.83432,-1.34037 2.71695,-1.94924 0.91284,-2.73697 -3.77459,-1.64812 -1.45521,0.33804 -2.92731,0.61585 -3.27133,0.61737 -0.56109,0.002 -0.57422,-0.079 -0.12751,-0.791 0.40562,-0.64653 1.33345,-3.05895 1.45856,-3.79236 0.12557,-0.73608 1.07203,-3.12892 1.46131,-3.69447 0.26343,-0.38272 0.47897,-1.25242 0.47897,-1.93266 0,-0.75075 0.65284,-2.59155 1.66118,-4.68401 1.5136,-3.14093 1.74866,-3.4472 2.64583,-3.4472 0.93732,0 1.05253,-0.12139 1.08818,-1.14652 0.0212,-0.60896 -0.44065,-2.44631 -0.77589,-3.08681 -0.15233,-0.29104 -0.47607,-1.3626 -0.71943,-2.38125 -0.37441,-1.56722 -0.5669,-1.85208 -1.25148,-1.85208 -0.94347,0 -1.42779,-0.93288 -0.84739,-1.63222 0.31279,-0.37689 0.27498,-0.48445 -0.17031,-0.48445 -0.33717,0 -0.57236,-0.28991 -0.57236,-0.70555 0,-0.38806 -0.15377,-0.70556 -0.34171,-0.70556 -0.18793,0 -0.25032,-0.23813 -0.13864,-0.52917 0.11168,-0.29104 0.067,-0.52887 -0.0993,-0.52852 -0.32684,7e-4 -0.42814,-3.94294 -0.10876,-4.23398 0.10646,-0.097 0.4052,-0.89076 0.66388,-1.76389 0.39501,-1.33331 0.51539,-1.47452 0.75178,-0.88194 0.1548,0.38806 0.31246,0.58649 0.35035,0.44097 0.19777,-0.75952 0.17207,-1.18487 -0.0933,-1.54441 -0.18673,-0.253 -0.0341,-0.46577 0.41933,-0.58433 0.39214,-0.10255 0.71299,-0.44881 0.71299,-0.76947 0,-0.32066 0.14595,-0.49281 0.32434,-0.38256 0.17838,0.11025 0.58107,-0.0563 0.89487,-0.37008 0.31379,-0.3138 0.96148,-0.59307 1.4393,-0.62061 0.47782,-0.0275 0.86888,-0.22907 0.86902,-0.44784 1.4e-4,-0.21878 0.26419,-0.61565 0.58678,-0.88195 0.45949,-0.37929 0.61885,-0.38817 0.73569,-0.041 0.082,0.24374 0.30205,0.34867 0.48893,0.23317 0.2104,-0.13003 0.18736,-0.39364 -0.0605,-0.6923 -0.47351,-0.57054 -0.16288,-1.21877 0.58404,-1.21877 0.29105,0 0.43929,-0.14543 0.32944,-0.32317 -0.10985,-0.17775 -0.009,-0.77306 0.2245,-1.32292 0.23332,-0.54986 0.45584,-1.15849 0.49447,-1.35252 0.29774,-1.4954 0.60338,-1.93876 1.06971,-1.55174 0.29932,0.24842 0.48608,0.26578 0.48608,0.0452 0,-0.19703 -0.2546,-0.45593 -0.56577,-0.57534 -0.31117,-0.1194 -0.47908,-0.44301 -0.37313,-0.71912 0.24421,-0.63641 -1.16695,-0.42739 -1.58741,0.23512 -0.15681,0.24708 -0.28997,0.29049 -0.29591,0.0965 -0.006,-0.19403 -0.1647,-0.11466 -0.35278,0.17639 -0.30398,0.47037 -0.34318,0.47037 -0.35278,0 -0.01,-0.47037 -0.0488,-0.47037 -0.35278,0 -0.22798,0.35277 -0.34377,0.38217 -0.34737,0.0882 -0.003,-0.24253 -0.17352,-0.44097 -0.379,-0.44097 -0.20548,0 -0.29299,0.13043 -0.19446,0.28985 0.21857,0.35365 -1.05279,1.49949 -1.34241,1.20987 -0.11341,-0.11341 -0.2062,-0.021 -0.2062,0.20537 0,0.22637 -0.38751,0.41158 -0.86113,0.41158 -0.47362,0 -0.964,0.16645 -1.08974,0.3699 -0.15647,0.25318 -0.36607,0.25583 -0.66421,0.008 -0.30081,-0.24965 -0.564,-0.23312 -0.85054,0.0534 -0.31807,0.31807 -0.41494,0.31125 -0.41494,-0.0292 0,-0.24429 -0.13113,-0.36311 -0.29141,-0.26405 -0.52898,0.32692 0.21684,-3.64207 0.79257,-4.2178 0.31001,-0.31001 0.458,-0.73462 0.32886,-0.94357 -0.15347,-0.24832 0.0414,-0.30768 0.56257,-0.17139 0.69477,0.18169 0.77604,0.097 0.63164,-0.6584 -0.0911,-0.47681 -0.0283,-0.95188 0.13975,-1.05571 0.16801,-0.10384 0.30547,-0.49692 0.30547,-0.87353 0,-0.3766 0.16812,-0.68473 0.37359,-0.68473 0.20548,0 0.27549,-0.15875 0.15557,-0.35278 -0.11991,-0.19403 -0.0405,-0.35278 0.17639,-0.35278 0.21693,0 0.29631,-0.15875 0.17639,-0.35278 -0.11991,-0.19402 -0.0405,-0.35277 0.17639,-0.35277 0.21693,0 0.30659,-0.14212 0.19923,-0.31581 -0.10735,-0.1737 0.0552,-0.41191 0.3613,-0.52936 0.30606,-0.11744 0.49083,-0.41047 0.4106,-0.65117 -0.0802,-0.2407 0.0732,-0.65675 0.34102,-0.92454 0.55746,-0.55747 0.4917,-3.74942 -0.0774,-3.75814 -0.19403,-0.003 -0.5494,-0.13027 -0.78971,-0.2829 -0.30038,-0.19078 -0.37127,-0.1064 -0.22684,0.26998 0.27361,0.71303 0.0557,0.69136 -0.83745,-0.0832 -0.54809,-0.47535 -0.64299,-0.78127 -0.38525,-1.24184 0.1881,-0.33611 0.24649,-0.91205 0.12975,-1.27986 -0.11674,-0.36781 -0.0367,-0.77722 0.17779,-0.90981 0.21453,-0.13258 0.35695,-0.66188 0.3165,-1.17621 -0.0404,-0.51434 0.0456,-1.21297 0.19122,-1.55252 0.14561,-0.33955 0.17533,-0.8504 0.066,-1.13523 -0.1093,-0.28483 -0.0366,-0.61807 0.16156,-0.74054 0.19816,-0.12247 0.31614,-0.64358 0.26217,-1.15804 -0.054,-0.51445 0.0254,-1.13513 0.17625,-1.37928 0.15089,-0.24416 0.17161,-0.76762 0.0461,-1.16325 -0.12557,-0.39563 -0.044,-0.94142 0.18131,-1.21288 0.22529,-0.27146 0.37355,-0.85915 0.32947,-1.30599 -0.0441,-0.44684 0.0398,-1.09024 0.18644,-1.42979 0.14662,-0.33955 0.17716,-0.8504 0.0679,-1.13523 -0.1093,-0.28483 -0.0427,-0.61427 0.14791,-0.7321 0.19064,-0.11783 0.30904,-0.77232 0.26311,-1.45442 -0.0937,-1.39177 -0.98891,-2.22998 -2.39475,-2.24234 -0.49041,-0.004 -1.2807,-0.30685 -1.7562,-0.67229 -0.77419,-0.59499 -0.81106,-0.73031 -0.35278,-1.2946 0.32652,-0.40204 0.34997,-0.5329 0.0648,-0.3615 -0.24585,0.14776 -0.0497,-0.31684 0.43595,-1.03244 0.48561,-0.71559 0.77978,-1.46799 0.6537,-1.67199 -0.14223,-0.23014 -0.006,-0.28541 0.35781,-0.14564 0.32287,0.1239 0.58704,0.0847 0.58704,-0.087 0,-0.17177 -0.19844,-0.39238 -0.44098,-0.49024 -0.24253,-0.0979 -0.12347,-0.1929 0.26459,-0.21119 0.58716,-0.0277 0.61676,-0.0906 0.17639,-0.37523 -0.44867,-0.28995 -0.43208,-0.3428 0.10901,-0.34738 0.351,-0.003 0.54798,-0.15135 0.43773,-0.32973 -0.11025,-0.17839 0.0108,-0.53558 0.26896,-0.79375 0.25818,-0.25818 0.53745,-0.62817 0.62061,-0.8222 0.0832,-0.19402 0.30994,-0.29986 0.50396,-0.23518 0.19403,0.0647 0.22575,-0.009 0.0705,-0.1647 -0.15525,-0.15525 -0.6315,-0.29963 -1.05833,-0.32083 -0.42682,-0.0212 -1.22294,-0.2249 -1.76915,-0.45266 -0.54621,-0.22777 -1.22588,-0.41413 -1.51038,-0.41413 -0.2845,0 -0.61375,-0.25143 -0.73168,-0.55874 -0.17263,-0.44987 -0.27253,-0.46706 -0.51269,-0.0882 -0.22277,0.35143 -0.29965,0.29938 -0.30369,-0.2056 -0.003,-0.37189 -0.10985,-0.5717 -0.23752,-0.44403 -0.12767,0.12766 -0.47564,0.0351 -0.77328,-0.20579 -0.4472,-0.36189 -0.49422,-0.34604 -0.27088,0.0913 0.14865,0.29105 0.0255,0.22797 -0.27376,-0.14016 -0.29921,-0.36814 -0.46036,-0.8047 -0.35812,-0.97014 0.10225,-0.16544 -0.071,-0.30081 -0.38489,-0.30081 -0.31395,0 -0.4727,-0.15875 -0.35278,-0.35278 0.11991,-0.19402 0.0102,-0.3552 -0.24376,-0.35818 -0.33625,-0.004 -0.31793,-0.0998 0.0674,-0.35277 0.43664,-0.28664 0.44601,-0.40102 0.0536,-0.65417 -0.37771,-0.24366 -0.31227,-0.45895 0.318,-1.04614 0.43648,-0.40663 0.91733,-0.66286 1.06857,-0.56939 0.15124,0.0935 0.38138,-0.002 0.51142,-0.21264 0.13005,-0.21042 0.45852,-0.29737 0.72994,-0.19322 0.27141,0.10416 0.49348,0.0262 0.49348,-0.17315 0,-0.19939 0.15875,-0.26442 0.35278,-0.1445 0.19403,0.11991 0.35278,-0.11821 0.35278,-0.52917 0,-0.41096 0.14788,-0.65579 0.32864,-0.54408 0.18075,0.11171 0.56678,-0.13689 0.85785,-0.55245 0.32499,-0.464 0.91287,-0.75824 1.52344,-0.76251 0.54683,-0.004 0.79579,-0.0766 0.55326,-0.16169 -0.24254,-0.0851 -0.44097,-0.389 -0.44097,-0.67532 0,-0.28632 0.15875,-0.42248 0.35278,-0.30256 0.19402,0.11992 0.35277,-0.0205 0.35277,-0.31195 0,-0.29149 0.35719,-0.79665 0.79375,-1.12256 0.57978,-0.43284 0.62134,-0.53402 0.15419,-0.37534 -0.58811,0.19977 -0.58242,0.13698 0.0707,-0.78027 0.39066,-0.54864 0.79188,-1.44744 0.89159,-1.99735 0.0997,-0.5499 0.36604,-1.11399 0.59183,-1.25354 0.22579,-0.13954 0.30144,-0.43022 0.16812,-0.64594 -0.13332,-0.21572 -0.0478,-0.39222 0.18999,-0.39222 0.23782,0 0.326,-0.10639 0.19597,-0.23642 -0.13003,-0.13003 0.009,-0.61077 0.30864,-1.0683 0.29979,-0.45753 0.44973,-0.98614 0.3332,-1.17469 -0.11653,-0.18854 -0.0252,-0.34281 0.20287,-0.34281 0.24106,0 0.33748,-0.29547 0.23024,-0.70555 -0.10148,-0.38806 -0.0221,-0.70556 0.17639,-0.70556 0.19849,0 0.27786,-0.3175 0.17639,-0.70556 -0.10148,-0.38805 -0.0221,-0.70555 0.17638,-0.70555 0.1985,0 0.27787,-0.3175 0.17639,-0.70556 -0.10148,-0.38805 -0.0424,-0.70555 0.1313,-0.70555 0.17369,0 0.31585,-0.35719 0.31593,-0.79375 1.3e-4,-0.81364 0.188,-2.1 0.57963,-3.96875 0.12199,-0.58209 0.24661,-1.61396 0.27694,-2.29306 0.0303,-0.67909 0.16814,-1.41618 0.30624,-1.63796 0.13809,-0.22179 0.19327,-0.89974 0.12261,-1.50657 -0.0707,-0.60682 0.0202,-1.19517 0.20181,-1.30743 0.18164,-0.11226 0.29717,-0.62494 0.25672,-1.13927 -0.0405,-0.51434 0.0427,-1.20537 0.18473,-1.53562 0.14205,-0.33026 0.15547,-0.76682 0.0298,-0.97014 -0.12566,-0.20332 -0.0418,-0.36967 0.18627,-0.36967 0.24632,0 0.33686,-0.29785 0.22295,-0.73343 -0.13776,-0.52681 -0.0542,-0.68063 0.29648,-0.54605 0.38459,0.14758 0.41843,0.004 0.15938,-0.67769 -0.22353,-0.58794 -0.20659,-0.86506 0.0529,-0.86506 0.20999,0 0.29042,-0.23812 0.17873,-0.52916 -0.11168,-0.29104 -0.0493,-0.52917 0.13865,-0.52917 0.18794,0 0.34709,-0.19844 0.35367,-0.44097 0.007,-0.24254 0.3187,-1.07597 0.69359,-1.85209 0.37489,-0.77611 0.687,-1.60166 0.69359,-1.83455 0.007,-0.23289 0.28978,-0.58525 0.62933,-0.78302 0.33955,-0.19777 0.47369,-0.36441 0.2981,-0.37031 -0.17559,-0.006 -0.0168,-0.35551 0.35278,-0.77692 0.42,-0.478861 0.47358,-0.651913 0.14287,-0.461451 -0.47037,0.27089 -0.47037,0.22863 0,-0.380332 0.29104,-0.376794 0.76729,-0.870721 1.05833,-1.097615 0.29104,-0.226893 0.52917,-0.620487 0.52917,-0.874652 0,-0.254166 0.49452,-0.7829 1.09893,-1.174966 0.60442,-0.392066 1.43932,-1.228785 1.85533,-1.859375 0.41824,-0.633958 1.05974,-1.146528 1.43493,-1.146528 0.3732,0 0.77931,-0.3175 0.90247,-0.705555 0.12317,-0.388056 0.49267,-0.705556 0.82113,-0.705556 0.32846,0 1.02521,-0.396875 1.54833,-0.881944 0.52313,-0.48507 1.19619,-0.881945 1.4957,-0.881945 0.29951,0 0.54457,-0.140235 0.54457,-0.311633 0,-0.491967 1.3832,-0.724478 1.65864,-0.278811 0.33781,0.546598 0.39824,1.648778 0.0904,1.648778 -0.13735,0 -0.24973,0.414929 -0.24973,0.922065 0,0.507136 -0.19893,1.045012 -0.44207,1.19528 -0.24314,0.150269 -0.33299,0.449714 -0.19966,0.665435 0.13332,0.215721 0.0573,0.39222 -0.16894,0.39222 -0.23333,0 -0.31694,0.245995 -0.19321,0.568445 0.15404,0.401407 0.066,0.510047 -0.29975,0.369713 -0.42884,-0.164561 -0.45099,-0.0519 -0.12881,0.655215 0.214,0.469671 0.5228,0.771305 0.68624,0.670298 0.16343,-0.101008 0.20261,0.06272 0.0871,0.363839 -0.24927,0.64959 0.25444,0.722891 0.85317,0.124156 0.32926,-0.329259 0.42333,-0.294688 0.42333,0.155569 0,0.318397 -0.16645,0.68178 -0.3699,0.807518 -0.24868,0.153687 -0.21977,0.413405 0.0882,0.792427 0.39197,0.482422 0.36898,0.530411 -0.15926,0.332442 -0.69385,-0.260033 -0.86477,0.293419 -0.17639,0.571182 0.29317,0.1183 0.25781,0.18727 -0.10552,0.20579 -0.49735,0.0254 -1.6359,2.308261 -1.46539,2.938271 0.0394,0.14552 -0.0871,0.26458 -0.28118,0.26458 -0.53419,0 -0.42215,0.91436 0.17251,1.40789 0.2889,0.23977 0.42313,0.60123 0.29827,0.80326 -0.1363,0.22053 -0.0548,0.26086 0.20402,0.10092 0.27431,-0.16954 0.50148,0.003 0.62482,0.47466 0.10658,0.40758 0.351,0.74105 0.54316,0.74105 0.19216,0 0.25484,-0.24637 0.13929,-0.54749 -0.12312,-0.32084 -0.0623,-0.45615 0.14689,-0.32686 0.40365,0.24947 2.45716,-0.56591 2.45716,-0.97566 0,-0.14666 0.2431,-0.26666 0.54023,-0.26666 0.29714,0 0.63127,-0.23721 0.74253,-0.52714 0.11125,-0.28993 0.33464,-0.44534 0.49641,-0.34536 0.16177,0.1 0.45781,-0.0994 0.65786,-0.443 0.33918,-0.58261 0.36446,-0.58362 0.37446,-0.015 0.009,0.51981 0.13924,0.55124 0.88161,0.213 0.47899,-0.21824 0.77196,-0.55687 0.65105,-0.7525 -0.12091,-0.19564 -0.0538,-0.2531 0.14907,-0.12771 0.20289,0.1254 0.29867,0.74913 0.21283,1.38607 -0.0858,0.63694 7.5e-4,1.55106 0.19241,2.03138 0.19167,0.48031 0.35854,0.67486 0.37084,0.43232 0.0123,-0.24253 0.19048,-0.44097 0.39596,-0.44097 0.20548,0 0.26033,0.18328 0.12188,0.40729 -0.15797,0.2556 -0.0965,0.31139 0.16493,0.14978 0.22915,-0.14162 0.39362,-0.44396 0.36548,-0.67186 -0.11047,-0.89491 0.0497,-1.32731 0.40927,-1.10507 0.20726,0.12809 0.2909,0.45684 0.18587,0.73054 -0.53262,1.38799 4.7189,-2.45402 10.82384,-7.918714 2.28502,-2.045384 4.98377,-4.345865 5.99722,-5.112179 1.9473,-1.472441 7.07176,-4.114947 7.99758,-4.124077 0.44843,-0.0044 0.45962,-0.06128 0.0617,-0.313336 -0.60545,-0.383486 -0.15211,-1.209729 0.52186,-0.951106 0.46508,0.178471 0.66622,-0.228368 0.50586,-1.023211 -0.0391,-0.194028 0.0454,-0.236183 0.18792,-0.09368 0.142507,0.142505 0.485009,-0.01624 0.761117,-0.352778 0.299115,-0.364574 0.39278,-0.398003 0.231746,-0.08271 -0.237915,0.46582 -0.188258,0.467824 0.414811,0.01674 0.376794,-0.281835 1.055057,-0.83746 1.507251,-1.234722 0.452194,-0.397263 0.849069,-0.659315 0.881945,-0.582338 0.09709,0.227342 1.647248,-0.341616 1.647546,-0.604704 1.5e-4,-0.132446 0.674838,-0.276507 1.499306,-0.320136 0.824467,-0.04363 2.06351,-0.111743 2.753428,-0.151363 0.689918,-0.03962 1.44398,0.04513 1.675694,0.188341 0.231714,0.143207 0.580049,0.162263 0.774077,0.04235 0.194027,-0.119916 0.352777,0.01648 0.352777,0.303105 0,0.286623 0.09999,0.781713 0.222208,1.100198 0.154115,0.401618 -0.0096,0.639678 -0.53419,0.776867 l -0.756398,0.197802 0.779155,0.675758 c 0.87752,0.761069 1.746654,0.736659 1.962544,-0.05512 0.128253,-0.470371 0.102703,-0.470371 -0.229948,0 -0.205828,0.291042 -0.376664,0.350167 -0.379635,0.13139 -0.01011,-0.744676 1.045217,-1.272485 2.577855,-1.289279 0.841089,-0.0092 1.715188,0.09816 1.942442,0.238608 0.227257,0.140451 0.578887,0.152954 0.781417,0.02779 0.20253,-0.125169 0.59245,-0.0415 0.86649,0.185939 0.27404,0.227436 0.67387,0.304985 0.88851,0.172332 0.42061,-0.259952 4.54503,-0.485778 9.78302,-0.535654 1.91964,-0.01828 3.26319,-0.176326 3.26319,-0.383861 0,-0.194035 0.14083,-0.265754 0.31295,-0.159378 0.17212,0.106377 0.29118,-0.07886 0.26458,-0.411642 -0.0266,-0.33278 0.15587,-0.608884 0.40548,-0.613565 0.24961,-0.0047 0.56711,-0.185178 0.70556,-0.401105 0.19606,-0.305791 2.0156,-0.421494 2.0156,-0.128171 0,0.03696 0.44238,0.08987 0.98306,0.117592 0.54068,0.02772 1.13356,0.288522 1.31751,0.579563 0.21844,0.3456 0.33633,0.377392 0.33986,0.09165 0.004,-0.291628 0.24449,-0.232811 0.7224,0.176389 0.39434,0.337649 0.87059,0.633752 1.05833,0.658005 0.18774,0.02425 0.51079,0.06394 0.71789,0.08819 0.2071,0.02425 0.27996,0.34844 0.1619,0.720415 -0.17391,0.547917 -0.078,0.64057 0.50539,0.488022 0.39603,-0.103563 0.72248,-0.368219 0.72545,-0.588124 0.004,-0.290637 0.0762,-0.292843 0.26458,-0.0081 0.29368,0.443883 2.55224,1.666155 2.55224,1.3812 0,-0.101997 0.30986,0.124409 0.68857,0.503122 0.383,0.382996 1.00922,0.62682 1.41111,0.549423 0.3974,-0.07653 0.72254,-5.55e-4 0.72254,0.168837 0,0.169393 0.35719,0.376784 0.79375,0.460869 0.76154,0.14668 0.75872,0.154833 -0.0695,0.200925 -0.63387,0.03528 -0.11825,0.412687 1.94028,1.420206 3.3562,1.642649 5.32813,3.100893 10.72141,7.928534 4.93413,4.416641 8.0759,6.824411 11.02815,8.451671 3.73283,2.05753 3.75568,2.05468 3.87905,-0.48434 l 0.1055,-2.17131 0.98832,0.91831 c 0.54357,0.50507 1.25795,0.93413 1.5875,0.95347 0.37642,0.0221 0.2713,0.14017 -0.28276,0.31761 -0.87007,0.27865 -0.87098,0.28293 -0.0674,0.31762 0.44802,0.0193 0.71646,0.19391 0.59655,0.38794 -0.11992,0.19403 0.0956,0.35278 0.47894,0.35278 0.38334,0 0.76377,-0.19844 0.8454,-0.44097 0.11529,-0.34254 0.28116,-0.3314 0.74303,0.0499 0.52461,0.43309 0.56584,0.41589 0.3502,-0.14606 -0.16708,-0.43538 -0.11509,-0.55701 0.16427,-0.38436 0.26158,0.16167 0.33747,0.067 0.21082,-0.26303 -0.11807,-0.30771 0.0614,-0.5978 0.44502,-0.71942 0.96943,-0.30731 0.87536,-2.64002 -0.14514,-3.59924 -0.43341,-0.40738 -0.70243,-0.82628 -0.59782,-0.93088 0.1046,-0.104612 -0.20567,-0.617329 -0.68949,-1.139379 -0.93705,-1.011096 -0.90408,-1.938082 0.0639,-1.796015 1.44416,0.211958 1.81106,-2.050837 0.62682,-3.865805 -0.25539,-0.391409 -0.42225,-1.246837 -0.37079,-1.900951 0.0515,-0.654114 -0.0142,-1.01489 -0.14598,-0.801724 -0.15312,0.247751 -0.40364,0.124793 -0.69442,-0.340826 -0.37496,-0.6004 -0.37283,-0.68026 0.0121,-0.454454 0.25686,0.15067 0.19479,-0.03748 -0.13793,-0.418114 -0.57494,-0.657735 -0.57057,-0.694648 0.0882,-0.744271 0.41515,-0.03127 0.69313,0.168544 0.69313,0.498225 0,0.452957 0.0952,0.471475 0.53725,0.104566 0.45441,-0.377132 0.49936,-0.347156 0.29153,0.194439 -0.19028,0.495858 -0.11507,0.590176 0.3334,0.418083 0.31852,-0.122225 0.67455,-0.06782 0.79118,0.120898 0.11663,0.188719 0.35984,0.251791 0.54046,0.140162 0.18063,-0.11163 0.32841,0.06151 0.32841,0.384766 0,0.377491 0.18929,0.515092 0.52916,0.38467 0.29104,-0.111683 0.52917,-0.03992 0.52917,0.159465 0,0.199389 0.15875,0.264413 0.35278,0.144497 0.20008,-0.123656 0.35277,0.172726 0.35277,0.684736 0,0.558698 0.19746,0.902764 0.5181,0.902764 0.32537,0 0.45254,-0.229646 0.34187,-0.617361 -0.0969,-0.339548 0.0146,-0.25362 0.24786,0.190952 0.23326,0.444572 0.59536,0.752426 0.80467,0.684119 0.20931,-0.06831 1.01556,0.513734 1.79167,1.293424 0.77611,0.779689 1.18815,1.280744 0.91563,1.113456 -0.33787,-0.207411 -0.41541,-0.174609 -0.24376,0.103126 0.13844,0.224006 0.38431,0.407284 0.54637,0.407284 0.44952,0 2.48593,1.994355 2.48593,2.434594 0,0.213196 0.11906,0.388867 0.26458,0.390381 0.37842,0.0039 1.16285,1.802113 0.94201,2.159433 -0.1017,0.16455 0.0633,0.20395 0.36659,0.0876 0.40046,-0.15367 0.49175,-0.0559 0.33335,0.35682 -0.11997,0.31265 -0.0424,0.56845 0.17239,0.56845 0.21479,0 0.39052,0.23812 0.39052,0.52916 0,0.29105 0.15875,0.52917 0.35278,0.52917 0.19403,0 0.32473,0.11906 0.29046,0.26458 -0.0974,0.41361 0.80074,3.39545 1.15208,3.82482 0.17338,0.21188 0.22133,0.47913 0.10657,0.59389 -0.11476,0.11476 -0.0844,0.40964 0.0674,0.65529 0.15182,0.24564 0.30973,0.77214 0.35092,1.16999 0.0412,0.39786 0.18548,1.19962 0.32066,1.78171 0.34371,1.48009 0.54176,3.01021 0.53351,4.12195 -0.004,0.52082 0.14651,1.04184 0.33418,1.15782 0.18766,0.11598 0.25178,0.44392 0.14248,0.72875 -0.1093,0.28483 -0.078,0.79568 0.0696,1.13523 0.1476,0.33955 0.23636,0.88111 0.19725,1.20347 -0.0391,0.32236 0.0803,0.6797 0.26545,0.7941 0.18509,0.11439 0.25355,0.52533 0.15212,0.9132 -0.10143,0.38786 -0.022,0.7052 0.17648,0.7052 0.19849,0 0.27787,0.3175 0.17639,0.70556 -0.1112,0.42521 -0.0108,0.70555 0.25261,0.70555 0.34701,0 0.3473,0.10823 0.001,0.52499 -0.35278,0.42507 -0.32781,0.5664 0.13116,0.74252 0.31178,0.11965 0.47474,0.3666 0.36214,0.5488 -0.1126,0.1822 -0.0129,0.56244 0.22161,0.84498 0.23449,0.28254 0.30809,0.51371 0.16357,0.51371 -0.14453,0 -0.086,0.21305 0.13013,0.47343 0.2161,0.26039 0.29229,0.57405 0.16931,0.69703 -0.12298,0.12298 -0.0557,0.42588 0.14945,0.6731 0.20518,0.24722 0.38655,0.56856 0.40305,0.71408 0.24387,2.15088 0.82809,4.14533 1.21579,4.15054 0.25624,0.003 0.27396,0.0993 0.0489,0.26458 -0.44671,0.3282 -0.65823,1.26254 -0.22523,0.99493 0.33412,-0.2065 0.87102,1.05207 0.77721,1.82189 -0.0296,0.24254 0.10699,0.44098 0.30343,0.44098 0.19644,0 0.26579,0.23812 0.15411,0.52916 -0.11168,0.29105 -0.018,0.52917 0.20828,0.52917 0.22624,0 0.31323,0.15875 0.19331,0.35278 -0.11991,0.19403 -0.0639,0.35278 0.12451,0.35278 0.18839,0 0.29897,0.39687 0.24572,0.88194 -0.0533,0.48507 0.0495,0.88194 0.22827,0.88194 0.1788,0 0.24734,0.1258 0.15232,0.27955 -0.095,0.15375 0.17035,0.30539 0.58972,0.33698 0.41937,0.0316 0.94001,0.30021 1.15697,0.59692 0.21696,0.29671 0.48335,0.45061 0.59197,0.34199 0.10862,-0.10862 0.29128,0.098 0.40591,0.45919 0.1554,0.4896 0.52668,0.64613 1.45924,0.61518 0.68794,-0.0228 1.33844,0.1003 1.44555,0.27361 0.10711,0.17331 0.59346,0.46669 1.08077,0.65197 0.7485,0.28458 0.81605,0.42118 0.43518,0.88009 -0.36656,0.44167 -0.36548,0.52302 0.006,0.43512 0.25113,-0.0594 0.53672,0.11244 0.63465,0.38198 0.10024,0.27587 0.02,0.39241 -0.18352,0.26661 -0.19886,-0.12291 -0.45577,0.022 -0.57089,0.322 -0.13069,0.34057 -0.0646,0.456 0.17602,0.30731 0.21193,-0.13098 0.0999,0.19751 -0.24902,0.72998 -0.57814,0.88236 -0.65732,0.90965 -0.89374,0.30802 -0.24635,-0.62691 -0.34114,-0.57926 -0.44128,0.22184 -0.0242,0.19403 -0.16883,0.34711 -0.32128,0.34018 -0.15245,-0.007 -0.52244,0.23265 -0.82219,0.53241 -0.29975,0.29975 -0.66692,0.46966 -0.81592,0.37757 -0.149,-0.0921 -0.61245,0.15076 -1.02989,0.53967 -0.41744,0.3889 -0.75898,0.60328 -0.75898,0.47639 0,-0.12688 -0.38961,0.0246 -0.86579,0.33658 -0.80245,0.52579 -0.89112,0.5223 -1.21202,-0.0476 -0.27918,-0.4958 -0.34024,-0.39283 -0.31525,0.53162 0.017,0.63059 0.14401,1.14653 0.28215,1.14653 0.13814,0 0.52398,0.71438 0.85743,1.5875 0.33345,0.87313 0.7519,1.5875 0.92988,1.5875 0.17798,0 0.3236,0.29104 0.3236,0.64676 0,0.35572 0.11183,0.7586 0.24852,0.89528 0.40976,0.40976 0.49981,1.91766 0.12823,2.14731 -0.19027,0.11759 -0.24594,0.4744 -0.12371,0.79292 0.16711,0.43547 0.0758,0.52292 -0.36819,0.35255 -0.32971,-0.12652 -0.59041,-0.0566 -0.59041,0.15834 0,0.2539 -0.1801,0.23543 -0.52917,-0.0543 -0.43199,-0.35852 -0.52916,-0.33789 -0.52916,0.11237 0,0.30335 -0.18328,0.66482 -0.40729,0.80326 -0.25088,0.15506 -0.31158,0.0969 -0.15806,-0.15153 0.16126,-0.26092 0.056,-0.32909 -0.29827,-0.19315 -0.30112,0.11555 -0.56796,0.47092 -0.59298,0.78971 -0.15874,2.02261 -0.13123,2.58707 0.13409,2.75105 0.16414,0.10144 0.15026,0.36874 -0.0308,0.594 -0.20551,0.25562 -0.19096,0.74107 0.0387,1.29151 0.40517,0.97108 0.66421,2.51954 0.64916,3.88056 -0.005,0.48507 0.0876,1.12007 0.20653,1.41111 0.11895,0.29104 0.25563,1.00542 0.30374,1.5875 0.0481,0.58208 0.18481,1.69333 0.30377,2.46944 0.11896,0.77611 0.21774,1.87611 0.21951,2.44444 0.002,0.56833 0.14879,1.20873 0.32671,1.42312 0.17793,0.21439 0.26529,0.70189 0.19414,1.08334 -0.0711,0.38145 -0.14394,0.8523 -0.16176,1.04633 -0.0178,0.19402 -0.18628,0.11465 -0.37436,-0.17639 -0.28764,-0.44509 -0.34284,-0.42421 -0.34738,0.13139 -0.005,0.55144 -0.0941,0.58691 -0.54264,0.21468 -0.45416,-0.37691 -0.49945,-0.34736 -0.29283,0.19107 0.16818,0.43828 0.11569,0.55738 -0.16831,0.38185 -0.22701,-0.14029 -0.41273,-0.0776 -0.41273,0.13934 0,0.21693 -0.16958,0.28962 -0.37683,0.16153 -0.20726,-0.1281 -0.28483,-0.47264 -0.17239,-0.76566 0.14554,-0.37927 0.0425,-0.47062 -0.35758,-0.31709 -0.30911,0.11861 -0.62841,0.21566 -0.70956,0.21566 -0.0811,0 -0.14753,0.15875 -0.14753,0.35278 0,0.19403 0.18901,0.31309 0.42002,0.26459 0.23101,-0.0485 0.48078,0.18961 0.55503,0.52916 0.0897,0.41039 -0.0806,0.61917 -0.50821,0.62277 -0.52792,0.004 -0.55139,0.0635 -0.13091,0.3295 0.28178,0.17825 0.67865,0.24342 0.88195,0.14482 0.20329,-0.0986 0.0615,0.0706 -0.31517,0.37606 -0.37663,0.30543 -0.50791,0.55532 -0.29172,0.55532 0.65341,0 2.56401,2.12324 2.56401,2.84936 0,0.37313 0.16812,0.67842 0.3736,0.67842 0.20547,0 0.29308,0.13028 0.19467,0.28951 -0.0984,0.15923 0.16026,0.83392 0.57483,1.49931 0.41457,0.66539 0.8069,1.51831 0.87186,1.89538 0.065,0.37708 0.31882,1.09145 0.56415,1.5875 0.24533,0.49605 0.48474,1.49723 0.53202,2.22483 0.0824,1.26857 -0.17722,1.56155 -1.17085,1.3211 -0.19403,-0.0469 -0.74966,-0.14535 -1.23473,-0.21865 -1.61801,-0.24452 -1.9372,-0.32662 -2.40472,-0.61853 -0.25544,-0.15949 -0.54667,-0.20776 -0.64717,-0.10725 -0.10051,0.1005 -0.49197,-0.082 -0.86991,-0.40565 -0.37795,-0.32361 -0.72172,-0.53753 -0.76394,-0.47539 -0.0422,0.0622 -0.497,-0.0468 -1.01062,-0.24206 -1.25048,-0.47543 -1.43019,-0.19458 -0.81604,1.27529 0.28335,0.67815 0.51518,1.53111 0.51518,1.89547 0,0.36436 0.16812,0.66248 0.3736,0.66248 0.20548,0 0.28339,0.14595 0.17315,0.32433 -0.11025,0.17839 0.0316,0.55636 0.31515,0.83995 0.28359,0.28359 0.42108,0.61015 0.30553,0.72569 -0.11554,0.11555 0.0555,0.312 0.38009,0.43656 0.39085,0.14998 0.52815,0.48043 0.40653,0.97844 -0.10101,0.41358 -0.0985,0.57145 0.006,0.35081 0.21547,-0.45672 2.97923,0.71917 2.97923,1.26757 0,0.17642 0.31981,0.42227 0.71068,0.54633 0.39087,0.12406 0.60447,0.39741 0.47466,0.60744 -0.13604,0.22012 -0.0724,0.28077 0.15023,0.14317 0.38604,-0.23858 1.83943,1.04788 1.83943,1.62816 0,0.16889 0.1407,0.22012 0.31267,0.11383 0.28912,-0.17868 0.87094,1.04677 0.78382,1.65091 -0.021,0.14552 0.13758,0.26458 0.35236,0.26458 0.21479,0 0.3051,0.22261 0.2007,0.49468 -0.1044,0.27207 -0.1054,0.57911 -0.002,0.6823 0.2987,0.29869 0.41801,3.40914 0.13077,3.40914 -0.1428,0 -0.27386,0.50043 -0.29125,1.11206 -0.0174,0.61164 -0.21398,1.22478 -0.43687,1.36253 -0.22288,0.13776 -0.3649,0.55014 -0.31558,0.91641 0.0493,0.36626 -0.0313,1.55175 -0.17913,2.6344 -0.15924,1.16614 -0.11972,2.50842 0.097,3.29322 0.22725,0.82305 0.24483,1.64287 0.0464,2.16475 -0.21696,0.57064 -0.18222,0.98521 0.10834,1.29289 0.38429,0.40693 0.56321,1.17694 0.63805,2.74596 0.0139,0.29104 0.11228,0.76729 0.21868,1.05833 0.67931,1.85834 0.54794,1.99135 -2.48683,2.51792 -2.21876,0.38498 -2.84805,0.61934 -2.73737,1.01946 0.079,0.28576 0.24434,1.33649 0.36733,2.33496 0.12298,0.99847 0.39481,2.03034 0.60406,2.29306 0.3087,0.38758 1.2315,2.75618 1.35434,3.47627 0.12511,0.73341 1.05294,3.14583 1.45856,3.79236 0.44675,0.7121 0.43364,0.79318 -0.12751,0.78824 -0.34402,-0.003 -1.578,-0.2355 -2.74216,-0.5166 -1.16417,-0.2811 -2.85375,-0.51675 -3.75462,-0.52366 -2.26102,-0.0173 -2.45305,0.70784 -0.54914,2.07377 0.81484,0.5846 1.64028,1.18776 1.83431,1.34037 0.19403,0.1526 0.82903,0.51559 1.41111,0.80663 0.81401,0.407 3.62594,2.17911 5.44005,3.42838 0.0816,0.0562 -0.20745,0.48095 -0.64236,0.94388 -1.25807,1.33916 -3.3215,1.74015 -6.95056,1.35074 -1.72634,-0.18524 -3.27471,-0.21422 -3.44083,-0.0644 -0.30958,0.27921 0.25999,4.58367 0.86647,6.54833 0.18581,0.60194 0.39703,1.55444 0.46936,2.11666 0.26012,2.02193 0.65209,3.85516 0.94646,4.42655 0.49825,0.96716 -0.69226,1.10776 -1.81086,0.21387 -2.5491,-2.03702 -3.00773,-2.37432 -3.23443,-2.37873 -0.13354,-0.003 -0.76854,-0.48615 -1.41111,-1.07454 -1.57807,-1.44502 -2.47373,-1.27332 -2.8202,0.54064 -0.87245,4.56775 -1.52715,6.7389 -2.2501,7.46185 -0.43212,0.43211 -0.7199,0.85143 -0.63952,0.93181 0.0804,0.0804 -0.5054,0.57731 -1.30173,1.1043 -2.42106,1.60218 -5.39853,1.10559 -10.11994,-1.68785 l -1.85208,-1.09579 v -3.26083 c 0,-3.08625 -0.0471,-3.29168 -0.87923,-3.83693 -1.33613,-0.87546 -1.82446,-0.44605 -2.10924,1.85473 -0.13999,1.13107 -0.37434,2.21524 -0.52078,2.40926 -0.14643,0.19403 -0.44177,1.25787 -0.65629,2.36408 -0.21453,1.10622 -0.7888,2.64297 -1.27617,3.41501 -1.0909,1.7281 -3.74852,3.60863 -5.30415,3.75321 l -1.15982,0.10779 0.27554,-1.29226 c 0.27657,-1.29714 0.4573,-2.73668 0.91079,-7.25461 0.21155,-2.10756 0.15947,-2.49664 -0.38771,-2.89675 -0.65433,-0.47846 -1.94572,-0.10524 -1.94572,0.56232 0,0.6695 -2.51529,4.57651 -3.67386,5.70664 -2.20438,2.15024 -2.14548,2.13025 -7.1198,2.41569 -3.12538,0.17934 -4.93449,0.43534 -5.31642,0.75231 -0.3184,0.26425 -0.63223,0.44512 -0.69738,0.40192 -0.24145,-0.16008 -1.44387,0.42512 -4.63627,2.25642 -1.80163,1.03349 -3.43097,1.87907 -3.62076,1.87907 -0.45824,0 -1.85618,0.79098 -2.18219,1.23472 -0.14255,0.19403 -0.26162,0.23172 -0.26459,0.0838 -0.003,-0.14796 -0.62296,0.12084 -1.37775,0.59732 -0.7548,0.47648 -1.46917,0.76951 -1.5875,0.65118 -0.11833,-0.11833 -0.21515,-0.0299 -0.21515,0.19643 0,0.22637 -0.23812,0.41158 -0.52917,0.41158 -0.61158,0 -0.67495,-0.45603 -0.18449,-1.32771 0.28402,-0.50479 0.75015,-2.02177 1.27222,-4.14035 0.83189,-3.37583 1.34214,-5.13542 1.74871,-6.03042 0.27273,-0.60034 0.5988,-1.96736 0.72461,-3.03782 0.2224,-1.89228 0.20264,-1.95283 -0.71223,-2.18245 -0.51754,-0.1299 -1.07956,-0.15053 -1.24893,-0.0459 -0.16937,0.10468 -0.90111,1.26047 -1.62609,2.56843 -1.17044,2.11165 -2.79789,4.46863 -3.85713,5.58616 -0.40109,0.42317 -3.23935,2.26001 -3.49212,2.26001 -0.0866,0 -0.20886,-0.22578 -0.27159,-0.50173 -0.0932,-0.40977 -0.37272,-0.37166 -1.52518,0.20789 -1.55473,0.78185 -6.689397,1.23906 -7.066306,0.62921 -0.117912,-0.19078 -0.367866,-0.25203 -0.555453,-0.13609 -0.31208,0.19288 -3.534592,-1.63632 -4.377753,-2.48495 -0.971592,-0.97788 -2.665621,-3.42501 -3.84928,-5.5605 -0.724975,-1.30796 -1.456713,-2.46375 -1.626084,-2.56843 -0.169372,-0.10468 -0.73139,-0.084 -1.24893,0.0459 -0.914875,0.22962 -0.934635,0.29017 -0.712234,2.18245 0.125811,1.07046 0.443944,2.43748 0.706961,3.03782 0.365109,0.83337 1.503494,4.74107 1.808158,6.20681 0.129087,0.62104 0.941069,3.44288 1.116628,3.88056 0.4161,1.03736 0.389107,1.41111 -0.101916,1.41111 -0.273874,0 -0.497952,-0.18521 -0.497952,-0.41158 z M 192.35626,207.90834 c 0,-0.29104 -0.1323,-0.52917 -0.29399,-0.52917 -0.16169,0 -0.29398,0.23813 -0.29398,0.52917 0,0.29104 0.13229,0.52917 0.29398,0.52917 0.16169,0 0.29399,-0.23813 0.29399,-0.52917 z M 21.864012,196.24835 c 0.12047,-0.31395 0.0613,-0.45555 -0.13864,-0.33196 -0.19181,0.11854 -0.34874,0.36491 -0.34874,0.54749 0,0.50745 0.25286,0.39563 0.48738,-0.21553 z M 193.42039,147.69358 c -0.11262,-0.28142 -0.19621,-0.19783 -0.21314,0.21314 -0.0153,0.37189 0.0681,0.58024 0.18529,0.46302 0.11722,-0.11723 0.12976,-0.4215 0.0279,-0.67616 z m -75.5565,-15.45197 c -0.0786,-0.1271 0.0963,-0.69205 0.38864,-1.25547 0.2923,-0.56341 0.45779,-1.30609 0.36775,-1.6504 -0.09,-0.3443 -0.003,-0.62601 0.19378,-0.62601 0.19663,0 0.26296,-0.24637 0.14741,-0.54749 -0.12048,-0.31395 -0.0613,-0.45555 0.13864,-0.33196 0.29318,0.1812 0.53842,-1.09423 0.39052,-2.03097 -0.023,-0.14552 0.13395,-0.26458 0.34874,-0.26458 0.21479,0 0.30419,-0.22499 0.19866,-0.49997 -0.10552,-0.27499 0.0463,-0.59137 0.3374,-0.70307 0.31377,-0.1204 0.42076,-0.38364 0.26278,-0.64655 -0.18811,-0.31306 -0.0931,-0.3029 0.32301,0.0346 0.44784,0.36316 0.50351,0.63864 0.23169,1.14653 -0.24984,0.46684 -0.24133,0.66851 0.0282,0.66851 0.2123,0 0.29817,0.14211 0.19082,0.31581 -0.10735,0.1737 0.069,0.4172 0.39195,0.54112 0.77263,0.29648 1.41128,-0.75707 1.21448,-2.00346 -0.023,-0.14552 0.23604,-0.26701 0.57559,-0.26999 0.52759,-0.005 0.54042,-0.0551 0.0882,-0.34737 -0.38451,-0.24849 -0.40293,-0.34345 -0.0674,-0.34738 0.25398,-0.003 0.36368,-0.16415 0.24376,-0.35818 -0.11991,-0.19402 0.0364,-0.35277 0.34742,-0.35277 0.33062,0 0.5224,-0.23975 0.4618,-0.57729 -0.0628,-0.34954 0.17087,-0.62013 0.59223,-0.68587 0.38274,-0.0597 0.86936,-0.34582 1.08139,-0.63578 0.39754,-0.54368 1.06882,-0.57975 1.83869,-0.0988 0.24253,0.15152 0.58616,0.18575 0.76362,0.0761 0.17745,-0.10967 0.37824,-0.0326 0.4462,0.17124 0.0679,0.20386 0.47838,0.39738 0.91207,0.43005 0.43369,0.0327 0.78853,0.21083 0.78853,0.3959 0,0.18508 0.10114,0.23536 0.22476,0.11174 0.12362,-0.12362 0.65747,0.0834 1.18635,0.45995 0.52887,0.37659 1.06273,0.58356 1.18635,0.45995 0.12361,-0.12362 0.22476,-0.0356 0.22476,0.19554 0,0.23117 0.39687,0.5712 0.88194,0.75562 0.48507,0.18442 0.88195,0.50736 0.88195,0.71764 0,0.21028 0.14899,0.29025 0.33109,0.1777 0.18211,-0.11254 0.51159,0.0765 0.73219,0.42016 0.32333,0.50363 0.36685,0.51281 0.22447,0.0473 -0.13161,-0.43026 -0.004,-0.53216 0.50253,-0.39982 0.8146,0.21302 0.83949,0.0175 0.16406,-1.28859 -0.2833,-0.54785 -0.41559,-1.09559 -0.29398,-1.2172 0.12162,-0.12162 0.0475,-0.22112 -0.16462,-0.22112 -0.21215,0 -0.60721,-0.44397 -0.87791,-0.98659 -0.47032,-0.94279 -0.45348,-0.98979 0.37946,-1.05873 1.0321,-0.0854 1.82493,-0.6716 1.82493,-1.34926 0,-0.35356 0.55272,-0.49274 2.02847,-0.5108 l 2.02847,-0.0248 -3.175,-0.67481 c -4.16637,-0.88551 -4.35983,-0.87815 -3.41288,0.12983 0.42188,0.44907 0.76705,0.94861 0.76705,1.1101 0,0.48279 -4.91584,-0.0826 -8.71354,-1.00215 -1.95142,-0.47251 -4.61919,-0.97382 -5.92838,-1.11402 l -2.38035,-0.25491 0.81316,1.09985 c 0.44724,0.60492 0.69678,1.21623 0.55455,1.35847 -0.32885,0.32885 -6.06807,-1.12312 -8.91473,-2.25534 -2.37081,-0.94296 -4.78414,-2.81062 -5.81396,-4.49938 -0.36221,-0.59397 -0.65915,-0.88703 -0.65988,-0.65124 -0.002,0.66047 -2.10895,2.90814 -3.62045,3.86231 -1.6261,1.02651 -7.859674,3.1431 -10.291546,3.49446 l -1.73985,0.25138 0.782758,-1.32667 0.782759,-1.32668 -2.04152,0.24429 c -1.122835,0.13436 -3.787769,0.64318 -5.922075,1.13073 -2.134304,0.48754 -5.058044,0.97718 -6.497184,1.08809 -2.29763,0.17707 -2.59036,0.13317 -2.40107,-0.3601 0.35723,-0.93094 -1.31768,-1.24005 -3.95306,-0.72955 -4.07808,0.78997 -10.96118,0.45068 -10.96118,-0.54032 0,-0.15212 0.39687,-0.48898 0.88194,-0.74858 0.48507,-0.25961 0.88194,-0.59268 0.88194,-0.74016 0,-0.14749 -0.91281,-0.4507 -2.02847,-0.67381 -1.11566,-0.2231 -2.86191,-0.61616 -3.88055,-0.87346 -1.01865,-0.2573 -1.85209,-0.3457 -1.85209,-0.19646 0,0.38418 2.94595,1.46197 4.60384,1.68434 1.32021,0.17707 1.99303,0.79955 0.86422,0.79955 -0.31803,0 -0.52917,0.32595 -0.52917,0.81692 0,0.7816 0.17333,0.83499 4.00812,1.23472 2.20447,0.22979 5.06197,0.4178 6.35,0.4178 1.84649,0 2.34188,0.11194 2.34188,0.52917 0,0.29104 0.15875,0.52916 0.35278,0.52916 0.19403,0 0.35278,0.23813 0.35278,0.52917 0,0.32926 0.33318,0.52917 0.88194,0.52917 0.48507,0 0.88195,-0.15875 0.88195,-0.35278 0,-0.19403 0.16282,-0.35278 0.36183,-0.35278 0.20606,0 0.12621,0.45565 -0.18545,1.05833 -0.301,0.58209 -0.43349,1.05834 -0.29441,1.05834 0.13909,0 -0.0553,0.2499 -0.43191,0.55533 -0.37663,0.30543 -0.44666,0.45208 -0.15562,0.3259 0.29104,-0.12619 0.14417,0.10844 -0.32637,0.52139 l -0.85554,0.75082 0.99155,0.95175 c 0.54536,0.52346 0.87378,0.74116 0.72983,0.48376 -0.15793,-0.28239 0.033,-0.74254 0.48135,-1.16027 0.47536,-0.44287 0.74307,-0.53025 0.74307,-0.24253 0,0.24736 0.35719,-0.0612 0.79375,-0.68572 0.43656,-0.6245 1.03652,-1.13821 1.33323,-1.14156 0.29672,-0.003 0.7622,-0.31509 1.0344,-0.69275 0.2722,-0.37767 0.62475,-0.60642 0.78344,-0.50835 0.15868,0.0981 0.28851,0.0152 0.28851,-0.18421 0,-0.19939 0.23813,-0.27115 0.52917,-0.15947 0.29104,0.11168 0.52967,0.067 0.53028,-0.0993 6.2e-4,-0.16628 0.63562,-0.31006 1.41112,-0.31951 0.775491,-0.009 1.409988,0.075 1.409988,0.18764 0,0.11265 0.411056,0.23885 0.913458,0.28043 1.248896,0.10336 1.564121,0.35216 1.304239,1.0294 -0.141299,0.36822 -0.08095,0.48923 0.16742,0.33572 0.583437,-0.36058 0.912942,0.43287 0.42428,1.02167 -0.300265,0.3618 -0.309246,0.51372 -0.03037,0.51372 0.217786,0 0.395974,-0.15875 0.395974,-0.35278 0,-0.19403 0.168119,-0.35278 0.373597,-0.35278 0.205479,0 0.275485,0.15875 0.155569,0.35278 -0.119916,0.19403 -0.05902,0.35278 0.135314,0.35278 0.194338,0 0.292197,0.3175 0.217464,0.70555 -0.08405,0.43644 0.05402,0.70556 0.361962,0.70556 0.3194,0 0.417097,0.21041 0.272571,0.58704 -0.144958,0.37775 -0.08682,0.50147 0.163085,0.34702 0.213593,-0.13201 0.496461,-0.0651 0.628595,0.14871 0.147384,0.23847 0.477011,0.002 0.852799,-0.61161 0.336905,-0.55018 0.48627,-1.08389 0.331921,-1.18603 -0.50961,-0.33722 0.253243,-1.07846 0.867368,-0.8428 0.394366,0.15133 0.527543,0.45736 0.388995,0.89389 -0.115871,0.36508 -0.05609,0.66378 0.132849,0.66378 0.188938,0 0.260495,0.3175 0.159016,0.70555 -0.103156,0.39448 -0.01082,0.70556 0.209416,0.70556 0.216658,0 0.375124,0.11906 0.352147,0.26458 -0.02298,0.14552 -0.01083,0.34396 0.02699,0.44097 0.202678,0.51987 0.417967,1.66394 0.414906,2.20487 -0.0019,0.33954 0.154759,0.61736 0.348179,0.61736 0.19342,0 0.26147,0.14595 0.151222,0.32433 -0.110248,0.17839 0.05047,0.57526 0.357156,0.88195 0.615163,0.61516 1.382634,0.76508 1.034705,0.20212 -0.285704,-0.46228 0.770496,-1.51996 1.232622,-1.23435 0.23395,0.14459 0.242525,-0.0753 0.02523,-0.64679 -0.181054,-0.4762 -0.233139,-0.96188 -0.115745,-1.07927 0.117394,-0.11739 0.197555,-1.48047 0.178136,-3.02907 -0.01942,-1.54859 0.11511,-2.90858 0.298955,-3.0222 0.183844,-0.11362 0.23314,-0.37021 0.109547,-0.57018 -0.136988,-0.22165 0.06735,-0.20729 0.523412,0.0368 0.41147,0.22022 0.750558,0.27574 0.75353,0.12339 0.003,-0.15234 0.134471,-0.0736 0.292222,0.17501 0.208008,0.32781 0.521563,0.35819 1.141125,0.11056 0.469868,-0.1878 0.6465,-0.35151 0.392514,-0.36381 -0.253986,-0.0123 -0.363679,-0.18111 -0.243764,-0.37514 0.119916,-0.19403 0.01022,-0.35521 -0.243763,-0.35818 -0.335558,-0.004 -0.317141,-0.0989 0.06737,-0.34738 0.295919,-0.19123 0.349351,-0.34435 0.121221,-0.34737 -0.23516,-0.003 -0.328862,-0.30782 -0.221231,-0.7194 0.18338,-0.70124 0.200543,-0.69967 0.960769,0.0882 0.42573,0.44121 0.721133,0.91029 0.656443,1.0424 -0.0647,0.13212 0.0463,0.34152 0.24669,0.46535 0.20036,0.12383 0.25628,0.3999 0.12427,0.61349 -0.15747,0.25479 -0.0246,0.3057 0.3863,0.14802 0.46115,-0.17696 0.57351,-0.10272 0.42606,0.28153 -0.11014,0.28702 -0.0614,0.60771 0.1084,0.71263 0.30664,0.18951 0.78189,-1.38684 0.87364,-2.89772 0.0428,-0.70419 0.90355,-2.02416 0.90355,-1.38554 0,0.14265 0.35719,0.0579 0.79375,-0.18828 0.43656,-0.2462 1.59503,-0.46107 2.57437,-0.47748 l 1.78061,-0.0298 -0.21329,1.66262 c -0.17603,1.37209 -0.12281,1.62789 0.30456,1.4639 0.39458,-0.15142 0.46736,-0.006 0.30572,0.61249 -0.12488,0.47752 -0.0134,1.0099 0.27087,1.29423 0.56035,0.56034 1.02903,0.64676 0.71025,0.13095 -0.29426,-0.47611 0.86683,-2.38437 1.56007,-2.564 0.93381,-0.24197 1.43809,0.1105 1.43809,1.00518 0,0.92062 0.60909,1.16163 0.9158,0.36236 0.11484,-0.29927 0.4755,-0.41502 0.92604,-0.29721 0.54648,0.14291 0.66372,0.0729 0.45187,-0.26988 -0.18949,-0.3066 -0.14856,-0.37788 0.12123,-0.21114 0.51476,0.31815 0.54561,4.93688 0.0393,5.88295 -0.28705,0.53637 -0.2438,0.73525 0.19667,0.90428 0.31056,0.11917 0.48308,0.42923 0.38339,0.68902 -0.0997,0.25979 -0.0268,0.56777 0.16187,0.68441 0.18872,0.11663 0.25457,0.35536 0.14632,0.5305 -0.28265,0.45734 0.79978,1.98466 1.40655,1.98466 0.28138,0 0.44733,-0.10399 0.36879,-0.23108 z m -6.76411,-11.75356 c 0,-0.2641 0.21607,-0.48017 0.48016,-0.48017 0.53555,0 0.44228,0.65285 -0.12004,0.84029 -0.19807,0.066 -0.36012,-0.096 -0.36012,-0.36012 z m -34.920858,4.14952 c -0.1149,-0.29941 -0.28456,-0.46872 -0.37703,-0.37625 -0.0925,0.0925 -0.0635,0.33745 0.0644,0.54438 0.34785,0.56285 0.55117,0.4535 0.31263,-0.16813 z m 56.956408,-1.20346 c -0.23683,-0.37924 -0.49892,-0.6212 -0.58243,-0.5377 -0.15119,0.1512 0.61762,1.22721 0.87686,1.22721 0.0749,0 -0.0576,-0.31028 -0.29443,-0.68951 z m -34.314645,-0.3007 c -0.108615,-0.10861 -0.393274,-2.2e-4 -0.632575,0.24088 -0.345817,0.3484 -0.305295,0.38893 0.197483,0.19748 0.347917,-0.13248 0.543708,-0.32974 0.435092,-0.43836 z m 27.330945,-1.12646 c 0,-0.19403 -0.16812,-0.35278 -0.3736,-0.35278 -0.20548,0 -0.27549,0.15875 -0.15557,0.35278 0.11992,0.19403 0.28803,0.35278 0.3736,0.35278 0.0856,0 0.15557,-0.15875 0.15557,-0.35278 z m 25.69398,-3.91193 c 0.0647,-0.17677 0.42186,-0.3214 0.79375,-0.3214 0.46159,0 0.68089,-0.25189 0.69109,-0.79375 0.0202,-1.07624 2.1152,-2.38125 3.82266,-2.38125 1.30763,0 2.8965,-0.79183 2.46157,-1.22676 -0.12436,-0.12436 -1.07661,0.0188 -2.11611,0.31805 -1.0395,0.29928 -3.14357,0.78173 -4.67572,1.0721 -1.53214,0.29037 -2.85282,0.59505 -2.93484,0.67707 -0.082,0.082 0.33812,0.43695 0.93364,0.78873 0.59551,0.35178 1.08275,0.75666 1.08275,0.89973 0,0.52335 -2.72919,0.99601 -5.99722,1.03863 -2.42928,0.0317 -3.0602,0.12323 -2.29305,0.33273 1.32543,0.36198 8.07239,0.0309 8.23148,-0.40388 z m 14.1699,-11.25751 c 0,-0.19403 -0.07,-0.35278 -0.15556,-0.35278 -0.0856,0 -0.25369,0.15875 -0.3736,0.35278 -0.11992,0.19402 -0.0499,0.35277 0.15557,0.35277 0.20548,0 0.37359,-0.15875 0.37359,-0.35277 z M 44.211642,101.68548 c -0.11723,-0.11722 -0.4215,-0.12976 -0.67616,-0.0279 -0.28142,0.11262 -0.19783,0.19621 0.21314,0.21314 0.37189,0.0153 0.58024,-0.0681 0.46302,-0.18529 z m -5.28432,-7.40925 c 0,-0.587998 -0.0995,-0.758548 -0.27604,-0.472964 -0.15182,0.245655 -0.19437,0.659479 -0.0945,0.919608 0.26931,0.701811 0.37059,0.579745 0.37059,-0.446644 z m 6.96487,-4.720796 c 0.12359,-0.199975 -0.018,-0.259118 -0.33196,-0.138645 -0.61116,0.234523 -0.72298,0.487382 -0.21553,0.487382 0.18257,0 0.42894,-0.156931 0.54749,-0.348737 z M 5.3252417,146.70139 c 0.11992,-0.19402 0.0102,-0.3552 -0.24376,-0.35818 -0.33625,-0.004 -0.31793,-0.0998 0.0674,-0.35277 0.43057,-0.28265 0.44215,-0.40356 0.0621,-0.64889 -0.37764,-0.2438 -0.35593,-0.41262 0.11339,-0.88195 0.82659,-0.82659 0.88281,-0.76245 0.88281,1.00707 0,1.20264 -0.13333,1.5875 -0.54998,1.5875 -0.3025,0 -0.45188,-0.15875 -0.33196,-0.35278 z M 52.068292,102.58335 c 0,-0.20548 0.15875,-0.27548 0.35278,-0.15557 0.19403,0.11992 0.35278,0.28804 0.35278,0.3736 0,0.0856 -0.15875,0.15557 -0.35278,0.15557 -0.19403,0 -0.35278,-0.16812 -0.35278,-0.3736 z m -5.64444,-4.345705 c 0,-0.07326 0.24176,-0.333836 0.53724,-0.579065 0.44921,-0.37281 0.50083,-0.350985 0.31504,0.133193 -0.18976,0.494502 -0.85228,0.841101 -0.85228,0.445872 z m 11.76106,-30.297727 c -0.0912,-0.147631 -0.5919,-0.259984 -1.11272,-0.249674 -0.52082,0.01031 -1.4232,-0.07732 -2.00528,-0.19473 -0.58209,-0.117412 -1.29646,-0.26083 -1.5875,-0.318706 -0.29105,-0.05788 -0.7673,-0.204 -1.05834,-0.324719 -1.53907,-0.638378 -3.52778,-1.232746 -3.52778,-1.054351 0,0.112165 -0.21304,0.02712 -0.47343,-0.188977 -0.26038,-0.216102 -0.55526,-0.311079 -0.65528,-0.21106 -0.10002,0.10002 -0.38266,-0.06011 -0.6281,-0.355838 -0.24543,-0.295731 -0.82368,-0.537692 -1.28499,-0.537692 -0.46131,0 -0.83875,-0.168119 -0.83875,-0.373598 0,-0.205478 -0.15875,-0.275484 -0.35278,-0.155569 -0.19403,0.119916 -0.35278,0.04054 -0.35278,-0.176388 0,-0.21693 -0.15875,-0.296305 -0.35277,-0.176389 -0.19403,0.119915 -0.35278,0.05293 -0.35278,-0.148848 0,-0.201782 -0.38732,-0.464087 -0.8607,-0.582899 -0.74943,-0.188094 -0.81784,-0.328756 -0.52917,-1.08802 0.41478,-1.090943 0.41319,-1.178845 -0.0213,-1.178845 -0.19403,0 -0.35278,0.33073 -0.35278,0.734954 0,1.042672 -0.77991,0.679345 -1.41111,-0.657375 -0.32708,-0.692669 -0.79862,-1.127842 -1.23472,-1.139496 -0.65411,-0.01748 -2.41838,-1.054749 -1.79401,-1.054749 0.15462,0 -0.21191,-0.460567 -0.81451,-1.023483 -0.60261,-0.562915 -1.09565,-1.207284 -1.09565,-1.431931 0,-0.224646 -0.19843,-0.296415 -0.44097,-0.159485 -0.33439,0.188792 -0.34349,0.14324 -0.0376,-0.188478 0.30868,-0.334788 0.15075,-0.678815 -0.67299,-1.466029 -0.59198,-0.565724 -0.97329,-1.131621 -0.84736,-1.257549 0.12593,-0.125929 0.0538,-0.439983 -0.16022,-0.697899 -0.21406,-0.257917 -0.29777,-0.707181 -0.18603,-0.998366 0.11808,-0.307701 0.0238,-0.494264 -0.22511,-0.445465 -0.23556,0.04618 -0.38859,-0.114475 -0.34009,-0.35701 0.0485,-0.242534 -0.09,-0.440972 -0.30778,-0.440972 -0.28844,0 -0.28599,-0.132516 0.009,-0.487968 0.31156,-0.3754 0.28473,-0.534115 -0.11631,-0.688008 -0.29977,-0.115032 -0.46212,-0.507324 -0.38204,-0.923143 0.0766,-0.397707 -0.0298,-0.723103 -0.23646,-0.723103 -0.25378,0 -0.24579,-0.156555 0.0246,-0.482361 0.30289,-0.364962 0.2812,-0.581221 -0.0891,-0.888557 -0.33991,-0.282103 -0.435,-0.88916 -0.31125,-1.987084 0.12728,-1.129234 0.0514,-1.580887 -0.26556,-1.580887 -0.32047,0 -0.38076,-0.393868 -0.21701,-1.417869 0.20109,-1.257596 0.10801,-1.533918 -0.8235,-2.444499 -0.67557,-0.660383 -0.89768,-1.088519 -0.62262,-1.200113 0.23519,-0.09542 0.0611,-0.186017 -0.38695,-0.201335 -0.52802,-0.01805 -0.72484,-0.173042 -0.55949,-0.440579 0.17552,-0.284001 0.0564,-0.336497 -0.38185,-0.168313 -0.5623,0.215774 -0.58078,0.171125 -0.1577,-0.381022 0.26358,-0.34399 0.34651,-0.513934 0.18429,-0.377652 -0.16222,0.136281 -0.53992,0.0028 -0.83933,-0.296599 -0.46395,-0.463948 -0.47078,-0.590978 -0.0462,-0.859743 0.35184,-0.222721 0.36864,-0.316948 0.0572,-0.320763 -0.24254,-0.003 -0.44098,-0.173521 -0.44098,-0.379 0,-0.205478 0.15875,-0.275484 0.35278,-0.155569 0.19403,0.119916 0.35278,0.04991 0.35278,-0.155569 0,-0.205478 -0.16812,-0.373597 -0.3736,-0.373597 -0.20548,0 -0.27388,-0.16134 -0.15201,-0.358533 0.12187,-0.197192 0.36936,-0.267198 0.54999,-0.155569 0.18062,0.11163 0.3284,0.03484 0.3284,-0.170634 0,-0.205479 0.16812,-0.373598 0.37359,-0.373598 0.20548,0 0.25757,0.198438 0.11575,0.440973 -0.14181,0.242534 0.064,0.159332 0.45733,-0.184895 0.40661,-0.355832 0.9655,-0.529808 1.29536,-0.403229 0.35125,0.134785 0.58019,0.04534 0.58019,-0.226679 0,-0.247125 0.0928,-0.356526 0.2062,-0.243114 0.36079,0.360784 1.55488,-0.918381 2.3063,-2.470605 0.45274,-0.935236 0.88056,-1.408297 1.13545,-1.255509 0.22495,0.134839 0.19112,-0.02344 -0.0752,-0.351723 -0.41853,-0.515972 -0.40375,-0.596885 0.10902,-0.596885 0.32625,0 0.50298,-0.145952 0.39273,-0.324337 -0.11025,-0.178386 0.005,-0.535573 0.25537,-0.79375 0.25071,-0.258177 0.82607,-0.995839 1.27858,-1.639247 0.71344,-1.014397 0.98097,-1.148514 2.01344,-1.009376 0.66179,0.08919 1.10302,0.01863 0.99334,-0.158837 -0.10854,-0.175613 -0.34512,-0.227962 -0.52574,-0.116332 -0.49483,0.305818 -0.39432,-0.533639 0.12097,-1.010403 0.24715,-0.228676 0.68372,-0.464186 0.97014,-0.523356 0.28642,-0.05917 0.69702,-0.336982 0.91243,-0.617361 0.21542,-0.280379 0.56127,-0.509779 0.76856,-0.509779 0.20728,0 0.62359,-0.24671 0.92512,-0.548244 0.30154,-0.301533 0.82881,-0.604138 1.17173,-0.672455 1.73768,-0.346186 2.56376,-0.651201 2.56376,-0.946624 0,-0.17982 0.33109,-0.149748 0.73577,0.06683 0.40467,0.216575 0.828,0.301535 0.94074,0.188801 0.11273,-0.112734 0.0198,-0.204971 -0.2066,-0.204971 -0.22637,0 -0.41158,-0.153768 -0.41158,-0.341706 0,-0.187938 0.22207,-0.25649 0.49348,-0.152339 0.27142,0.104152 0.594,0.02673 0.71686,-0.172053 0.12285,-0.198781 0.44035,-0.278156 0.70555,-0.176389 0.26521,0.101768 0.58271,0.02239 0.70556,-0.176389 0.12285,-0.198781 0.45641,-0.271994 0.74124,-0.162696 0.28483,0.109299 0.51787,0.03978 0.51787,-0.154477 0,-0.194261 0.35718,-0.350886 0.79375,-0.348056 0.88368,0.0057 2.21035,-0.2853 2.71097,-0.594705 0.1799,-0.111179 0.43156,-0.03309 0.55925,0.173519 0.16033,0.259415 0.39272,0.242426 0.75097,-0.0549 0.28534,-0.236811 1.10465,-0.481099 1.82068,-0.542863 0.71603,-0.06176 2.175,-0.203086 3.24215,-0.314049 1.06716,-0.110963 8.44903,-0.273884 16.40417,-0.362048 11.700038,-0.129666 14.362773,-0.07492 13.934722,0.286511 -0.291041,0.245745 -0.564235,0.764309 -0.607096,1.152364 -0.04286,0.388056 0.01268,0.499248 0.123422,0.247093 0.160062,-0.364446 0.374988,-0.344693 1.048069,0.09633 0.465694,0.305135 0.846716,0.452317 0.846716,0.327073 0,-0.125245 0.228689,-0.03792 0.508198,0.194049 0.279508,0.231971 0.423283,0.687972 0.319499,1.013334 -0.126446,0.39641 -0.08736,0.452235 0.118475,0.169218 0.182864,-0.25143 0.498989,-0.303801 0.781159,-0.12941 0.375403,0.232012 0.336779,0.370317 -0.1857,0.664963 -0.5615,0.316652 -0.58635,0.440927 -0.16696,0.834966 0.355137,0.33367 0.423206,0.339805 0.243764,0.02197 -0.30509,-0.540386 -0.03032,-0.559866 0.89698,-0.06359 0.576359,0.308458 0.625646,0.473165 0.26987,0.901849 -0.350261,0.422039 -0.340432,0.503358 0.05033,0.41637 0.452365,-0.100701 1.239132,2.003571 1.567823,4.193273 0.157096,1.046552 0.516477,1.572829 0.908568,1.330504 0.179386,-0.110867 0.220534,0.0701 0.09206,0.404895 -0.168279,0.43853 -0.105943,0.527268 0.226197,0.321995 0.309851,-0.191499 0.400768,-0.124483 0.280436,0.206712 -0.09793,0.269542 -0.356651,0.45039 -0.574933,0.401883 -0.218281,-0.04851 -0.396875,0.07055 -0.396875,0.264583 0,0.194028 -0.223521,0.352778 -0.496714,0.352778 -0.378067,0 -0.496656,0.568797 -0.49647,2.38125 1.35e-4,1.309687 -0.111739,2.661435 -0.248607,3.003883 -0.136869,0.342448 -0.16913,0.927491 -0.07169,1.300094 0.09744,0.372604 -0.04512,0.994811 -0.316795,1.382682 -0.333601,0.476281 -0.372642,0.780194 -0.120264,0.936173 0.259797,0.160563 0.251694,0.377952 -0.02659,0.71326 -0.220153,0.265269 -0.304647,0.637041 -0.187765,0.826161 0.116883,0.189121 0.04035,0.450257 -0.170068,0.580304 -0.21042,0.130047 -0.299318,0.453432 -0.197551,0.718634 0.101768,0.265202 0.03063,0.577614 -0.158093,0.694249 -0.188719,0.116634 -0.258571,0.348874 -0.155227,0.516088 0.103344,0.167213 0.02397,0.405338 -0.176389,0.529166 -0.200358,0.123828 -0.261984,0.390671 -0.136947,0.592985 0.125037,0.202314 0.0403,0.483441 -0.188307,0.624727 -0.228605,0.141286 -0.441476,0.599787 -0.473046,1.018891 -0.03157,0.419105 -0.199352,0.762008 -0.372849,0.762008 -0.173497,0 -0.224071,0.238125 -0.112388,0.529167 0.141449,0.368612 -0.03441,0.537617 -0.579618,0.557018 -0.430473,0.01532 -0.585509,0.107499 -0.344525,0.204847 0.336431,0.135905 0.344645,0.35467 0.03538,0.942288 -0.221525,0.42091 -0.577444,0.881923 -0.790932,1.024473 -0.268597,0.179347 -0.252329,0.260845 0.05281,0.264583 0.242535,0.003 0.440973,0.17485 0.440973,0.381953 0,0.21961 -0.330823,0.286105 -0.79375,0.159544 -0.689821,-0.188593 -0.712272,-0.165955 -0.171472,0.172897 0.675792,0.423434 0.448852,0.824162 -0.975056,1.721745 -0.635469,0.400579 -0.639273,0.423789 -0.0383,0.233657 0.533305,-0.168722 0.587035,-0.114437 0.267644,0.270406 -0.219789,0.264829 -0.286769,0.594353 -0.148846,0.732277 0.137924,0.137923 -0.0061,0.152181 -0.320155,0.03168 -0.651014,-0.249818 -1.199631,0.366505 -0.636206,0.714722 0.22521,0.139187 -0.04907,0.706616 -0.699801,1.447762 -0.588595,0.670373 -1.070173,1.424636 -1.070173,1.67614 0,0.251503 -0.396875,0.66968 -0.881945,0.929281 -0.485069,0.259601 -0.901788,0.603927 -0.926041,0.765168 -0.02425,0.161241 -0.06394,0.425071 -0.08819,0.58629 -0.02425,0.161219 -0.699748,0.942256 -1.501098,1.735638 -1.135932,1.124635 -1.555505,1.351564 -1.904005,1.029792 -0.349757,-0.322933 -0.40251,-0.285625 -0.242484,0.171494 0.122256,0.349228 -0.0941,0.845868 -0.537884,1.234722 -0.40832,0.357779 -0.61913,0.44035 -0.46846,0.183491 0.2251,-0.383753 0.14564,-0.386888 -0.44571,-0.01759 -0.39581,0.247186 -0.65552,0.553192 -0.57714,0.680013 0.16911,0.273627 -1.41118,1.03931 -2.14503,1.03931 -0.28191,0 -0.51256,0.247494 -0.51256,0.549987 0,0.302492 -0.15875,0.451873 -0.35278,0.331958 -0.19403,-0.119916 -0.35278,-0.08457 -0.35278,0.07855 0,0.163119 -0.71437,0.507511 -1.5875,0.765314 -0.87312,0.257803 -1.5875,0.60686 -1.5875,0.775683 0,0.168822 -0.48867,0.250053 -1.08593,0.180512 -0.63088,-0.07346 -1.15464,0.05262 -1.2499,0.300871 -0.17053,0.444397 -0.68352,0.562236 -2.36039,0.542204 -0.54563,-0.0065 -1.16237,0.09341 -1.37052,0.222052 -0.53314,0.329495 -9.13459,0.367631 -9.33608,0.04139 z m 18.46604,-4.913004 c -0.11262,-0.281422 -0.19621,-0.197829 -0.21314,0.213137 -0.0153,0.371886 0.0681,0.580246 0.18529,0.463021 0.11722,-0.117226 0.12976,-0.421496 0.0279,-0.676158 z m -35.16599,-1.853312 c 0,-0.08556 -0.15875,-0.253682 -0.35278,-0.373598 -0.19402,-0.119915 -0.35277,-0.04991 -0.35277,0.155569 0,0.205479 0.15875,0.373598 0.35277,0.373598 0.19403,0 0.35278,-0.07001 0.35278,-0.155569 z m -0.52917,-1.255542 c 0.11992,-0.194028 0.0499,-0.352778 -0.15556,-0.352778 -0.20548,0 -0.3736,0.15875 -0.3736,0.352778 0,0.194028 0.07,0.352778 0.15557,0.352778 0.0856,0 0.25368,-0.15875 0.37359,-0.352778 z M 30.196072,33.106949 c 0,-0.194028 -0.07,-0.352778 -0.15557,-0.352778 -0.0856,0 -0.25368,0.15875 -0.37359,0.352778 -0.11992,0.194027 -0.0499,0.352777 0.15556,0.352777 0.20548,0 0.3736,-0.15875 0.3736,-0.352777 z m 6.2537,-5.635244 c -0.0606,-0.804424 -0.82514,-1.221654 -1.18163,-0.644842 -0.14666,0.237297 -0.0815,0.292586 0.16509,0.140162 0.25749,-0.159139 0.40729,0.01543 0.40729,0.474659 0,0.399507 0.14888,0.726376 0.33085,0.726376 0.18197,0 0.30725,-0.31336 0.2784,-0.696355 z m 1.6838,-2.831423 c 0.11992,-0.194028 0.0593,-0.352778 -0.13475,-0.352778 -0.19402,0 -0.45089,0.15875 -0.5708,0.352778 -0.11992,0.194028 -0.0593,0.352778 0.13475,0.352778 0.19402,0 0.45089,-0.15875 0.5708,-0.352778 z m -0.88194,-1.058333 c 0,-0.194028 -0.07,-0.352778 -0.15557,-0.352778 -0.0856,0 -0.25368,0.15875 -0.3736,0.352778 -0.11991,0.194027 -0.0499,0.352777 0.15557,0.352777 0.20548,0 0.3736,-0.15875 0.3736,-0.352777 z M 142.83951,67.920836 c -0.0975,-0.158125 -0.59812,-0.254406 -1.11245,-0.213956 -0.51434,0.04045 -1.18928,-0.03651 -1.49988,-0.171016 -0.3106,-0.134509 -0.70748,-0.202939 -0.88195,-0.152068 -0.17447,0.05087 -0.69356,-0.115821 -1.15354,-0.370428 -0.45997,-0.254607 -0.74139,-0.309326 -0.62537,-0.121597 0.11602,0.187728 -0.33242,0.09504 -0.99654,-0.205981 -0.66412,-0.301018 -1.11761,-0.692739 -1.00775,-0.870491 0.10986,-0.177753 -0.13692,-0.143013 -0.54839,0.0772 -0.41147,0.220212 -0.74812,0.267942 -0.74812,0.106065 0,-0.161876 -0.55563,-0.495237 -1.23473,-0.740802 -0.67909,-0.245565 -1.23472,-0.594956 -1.23472,-0.776425 0,-0.181468 -0.29432,-0.329943 -0.65404,-0.329943 -0.35972,0 -1.0741,-0.389295 -1.5875,-0.865099 -0.5134,-0.475805 -0.93346,-0.78772 -0.93346,-0.693144 0,0.09458 -0.35417,-0.01759 -0.78705,-0.249259 -1.0734,-0.574468 -2.23666,-2.113342 -2.09356,-2.769577 0.0932,-0.427636 0.0258,-0.44911 -0.32816,-0.104532 -0.3545,0.34508 -0.64877,0.205991 -1.44059,-0.6809 -0.5473,-0.613011 -0.99508,-1.244723 -0.99508,-1.403805 0,-0.159082 -0.19844,-0.294228 -0.44098,-0.300325 -0.24253,-0.0061 -0.7459,-0.429104 -1.1186,-0.940014 -0.42293,-0.579767 -0.48923,-0.8213 -0.17639,-0.642588 0.27568,0.157488 0.18374,-0.04688 -0.20431,-0.454161 -1.25503,-1.317192 -1.5875,-1.793945 -1.5875,-2.276429 0,-0.260425 -0.19711,-0.670611 -0.43802,-0.911523 -0.34885,-0.348846 -0.33089,-0.51363 0.0882,-0.80939 0.45218,-0.319115 0.44573,-0.345869 -0.0458,-0.190153 -0.42526,0.134709 -0.77947,-0.309408 -1.38025,-1.730611 -0.4445,-1.051503 -0.92532,-1.911823 -1.06849,-1.911823 -0.14317,0 -0.22853,-0.459073 -0.18968,-1.020162 0.0492,-0.711025 -0.0683,-0.966841 -0.38792,-0.844201 -0.2522,0.09678 -0.47839,-0.07915 -0.50264,-0.390949 -0.079,-1.015735 -0.12885,-1.210224 -0.37257,-1.453946 -0.13215,-0.132152 -0.15486,-0.462882 -0.0505,-0.734954 0.1044,-0.272072 0.0487,-0.494677 -0.12376,-0.494677 -0.17246,0 -0.34838,-0.420511 -0.39091,-0.934469 -0.0425,-0.513957 -0.22927,-1.117531 -0.41496,-1.341273 -0.18569,-0.223743 -0.24637,-0.755732 -0.13485,-1.182199 0.11153,-0.426466 0.0404,-0.775392 -0.15812,-0.775392 -0.1985,0 -0.27787,-0.3175 -0.17639,-0.705556 0.10452,-0.399691 0.0108,-0.705556 -0.21614,-0.705556 -0.24632,0 -0.3191,-0.324889 -0.18895,-0.843458 0.11643,-0.463902 0.055,-0.94031 -0.13655,-1.058685 -0.19153,-0.118374 -0.26587,-0.530195 -0.1652,-0.915158 0.10067,-0.384963 0.0622,-0.980117 -0.0856,-1.322566 -0.14773,-0.342448 -0.23563,-0.964658 -0.19532,-1.382688 0.0403,-0.418031 -0.0896,-0.860749 -0.28877,-0.983818 -0.19913,-0.123068 -0.26803,-0.693856 -0.15312,-1.268416 0.13742,-0.68713 0.066,-1.044655 -0.20877,-1.044655 -0.22973,0 -0.32176,-0.155221 -0.20451,-0.344935 0.13521,-0.218781 -2.20119,-0.380059 -6.38827,-0.440972 -5.103,-0.07424 -6.636773,-0.202208 -6.757069,-0.563775 -0.126213,-0.379351 1.086713,-0.451176 6.418769,-0.380094 4.66213,0.06215 6.6947,-0.03267 6.98804,-0.326012 0.22751,-0.227511 0.28309,-0.413656 0.12351,-0.413656 -0.15957,0 -0.0942,-0.236104 0.14531,-0.524675 0.23949,-0.28857 0.3419,-0.768421 0.22758,-1.066334 -0.11447,-0.298298 0.0956,-0.845159 0.46765,-1.217167 0.46076,-0.460762 0.54233,-0.729735 0.25658,-0.846092 -0.2304,-0.09382 -0.10142,-0.194277 0.28664,-0.223232 l 0.70555,-0.05265 -0.70555,-0.303188 c -0.6298,-0.270632 -0.63703,-0.30585 -0.0674,-0.327983 0.351,-0.01364 0.5535,-0.161806 0.45001,-0.329265 -0.22927,-0.370972 2.45247,-2.916444 2.75444,-2.614474 0.11787,0.117873 0.21431,0.01974 0.21431,-0.218079 0,-0.237817 0.14071,-0.345436 0.31268,-0.239153 0.17196,0.106282 0.40071,-0.143442 0.50832,-0.554942 0.14371,-0.549565 0.38888,-0.697654 0.92352,-0.557841 0.54147,0.141597 0.77773,-0.0083 0.92257,-0.585378 0.11069,-0.441035 0.49386,-0.798255 0.88809,-0.827952 0.42052,-0.03168 0.59954,0.09965 0.45489,0.333702 -0.15375,0.24876 -0.073,0.283643 0.22713,0.09814 0.44918,-0.277606 26.73455,-0.219965 30.6878,0.06729 1.06716,0.07754 2.29747,0.151144 2.73403,0.163555 0.43656,0.01241 0.79375,0.183029 0.79375,0.37915 0,0.196122 0.39207,0.281636 0.87127,0.190031 0.52736,-0.10081 0.78516,-0.02723 0.65312,0.186412 -0.13376,0.216428 0.14331,0.283871 0.71624,0.174348 0.5139,-0.09824 0.93437,-0.03024 0.93437,0.151108 0,0.181348 0.27781,0.266742 0.61736,0.189763 0.33955,-0.07698 1.0338,0.0638 1.54278,0.312841 0.50897,0.249041 1.02491,0.3533 1.14652,0.231687 0.12162,-0.121614 0.22112,0.06291 0.22112,0.410043 0,0.501584 0.10159,0.546844 0.49486,0.220461 0.3161,-0.262341 0.53911,-0.28163 0.61736,-0.0534 0.0674,0.196515 0.47248,0.410241 0.90023,0.474946 0.42775,0.06471 1.73086,0.664609 2.89581,1.333119 1.60068,0.918564 2.07274,1.366278 1.93252,1.832833 -0.10205,0.339549 -0.007,0.617361 0.21182,0.617361 0.21856,0 0.30764,-0.145191 0.19797,-0.322646 -0.41062,-0.664397 0.71157,-0.597141 1.30347,0.07812 0.50016,0.570603 0.53461,0.809898 0.18247,1.267701 -0.33632,0.437245 -0.2715,0.426387 0.28786,-0.04822 0.55688,-0.472507 0.81761,-0.516865 1.14045,-0.194028 0.23018,0.230184 0.41851,0.614194 0.41851,0.853355 0,0.239161 0.32947,0.539406 0.73214,0.667211 0.40268,0.127805 0.64182,0.322701 0.53141,0.433103 -0.1104,0.110401 0.11576,0.422408 0.50259,0.693348 0.38682,0.270941 0.70331,0.721742 0.70331,1.001782 0,0.280039 0.19843,0.511593 0.44097,0.514564 0.29398,0.0036 0.26458,0.119394 -0.0882,0.347376 -0.44508,0.287635 -0.4242,0.342832 0.13139,0.347376 0.55145,0.0045 0.58691,0.09414 0.21469,0.542644 -0.37312,0.449583 -0.35073,0.500735 0.13719,0.3135 0.44923,-0.172386 0.5279,-0.07998 0.34273,0.402573 -0.15737,0.410102 -0.10663,0.543678 0.14699,0.386934 0.22024,-0.136116 0.49446,0.09814 0.63566,0.543036 0.28337,0.892838 1.02457,1.719243 1.6616,1.852626 0.23866,0.04997 0.70413,0.208275 1.03439,0.351788 0.33026,0.143513 0.76614,0.158539 0.96864,0.03339 0.20249,-0.125148 0.55081,0.173307 0.77403,0.663233 0.22323,0.489927 0.52325,0.818228 0.66672,0.72956 0.14347,-0.08867 0.34531,0.273497 0.44853,0.804812 0.10322,0.531315 0.042,1.018944 -0.13605,1.08362 -0.17805,0.06468 -0.32373,0.342488 -0.32373,0.617361 0,0.274873 -0.2431,0.499768 -0.54024,0.499768 -0.29713,0 -0.63317,0.242177 -0.74675,0.538171 -0.13987,0.3645 -0.33934,0.427934 -0.61812,0.196569 -0.57491,-0.477135 -1.37304,0.09804 -1.51132,1.089137 -0.0631,0.452076 -0.20822,1.456957 -0.32254,2.233068 -0.11433,0.776111 -0.25621,1.931049 -0.31529,2.566529 -0.0591,0.63548 -0.29001,1.375409 -0.51316,1.644287 -0.29205,0.351896 -0.29728,0.555891 -0.0187,0.728073 0.27474,0.169795 0.27794,0.370659 0.011,0.692248 -0.2068,0.249176 -0.2769,0.711292 -0.15578,1.026927 0.12885,0.335772 0.0425,0.57388 -0.20805,0.57388 -0.23554,0 -0.33883,0.233041 -0.22954,0.517869 0.1093,0.284828 0.0443,0.613298 -0.1444,0.729932 -0.18871,0.116635 -0.25109,0.360965 -0.13862,0.542956 0.11248,0.181991 -0.0337,0.422285 -0.32475,0.533986 -0.29108,0.111701 -0.44342,0.426742 -0.33853,0.70009 0.10489,0.273349 -0.0679,0.59625 -0.38406,0.717559 -0.44529,0.170874 -0.48354,0.330487 -0.16979,0.708529 0.30592,0.36861 0.30303,0.487968 -0.0118,0.487968 -0.22924,0 -0.31868,0.15875 -0.19876,0.352778 0.11991,0.194028 0.0405,0.352778 -0.17639,0.352778 -0.21693,0 -0.29631,0.15875 -0.17639,0.352778 0.11994,0.194077 -0.14842,0.365306 -0.59654,0.380628 -0.44802,0.01532 -0.60772,0.110727 -0.3549,0.21202 0.34398,0.137817 0.29958,0.305559 -0.17639,0.666485 -0.50845,0.38555 -0.52989,0.48672 -0.10689,0.504264 0.41505,0.01721 0.39443,0.100385 -0.0956,0.385679 -0.34363,0.200052 -0.54748,0.488799 -0.45301,0.641659 0.0945,0.15286 -0.21969,0.487429 -0.69814,0.743486 -0.47844,0.256057 -0.8699,0.773218 -0.8699,1.149245 0,0.472955 -0.16875,0.618931 -0.54749,0.473596 -0.30112,-0.115551 -0.45653,-0.06292 -0.34536,0.116963 0.11117,0.179881 -0.0724,0.480688 -0.40793,0.668462 -0.44723,0.250283 -0.72788,0.185452 -1.0515,-0.242902 -0.37298,-0.493686 -0.41688,-0.381076 -0.28307,0.726093 0.12322,1.019537 0.0488,1.268363 -0.33516,1.121014 -0.29757,-0.114189 -0.58887,0.111021 -0.73366,0.567197 -0.15054,0.474311 -0.4325,0.682763 -0.75575,0.558721 -0.30672,-0.117701 -0.42235,-0.04696 -0.28541,0.17462 0.12662,0.204865 -0.10326,0.459687 -0.51084,0.566271 -0.40758,0.106584 -0.74105,0.343392 -0.74105,0.526241 0,0.182849 -0.14009,0.245872 -0.31132,0.140051 -0.17122,-0.105821 -0.70558,0.117735 -1.18748,0.496791 -0.48189,0.379057 -0.9768,0.588561 -1.0998,0.465564 -0.12299,-0.122996 -0.22606,0.0013 -0.22903,0.276139 -0.004,0.411502 -0.0658,0.40631 -0.34737,-0.0294 -0.29354,-0.454217 -0.34274,-0.443294 -0.34738,0.07712 -0.003,0.367527 -0.19588,0.533196 -0.48908,0.420684 -0.26602,-0.102083 -0.72073,0.05144 -1.01046,0.341171 -0.39315,0.39315 -0.62841,0.425143 -0.92743,0.126122 -0.27629,-0.276294 -0.40065,-0.282026 -0.40065,-0.01847 0,0.332096 -0.73837,0.714031 -1.94028,1.003643 -0.19403,0.04675 -0.43215,0.116547 -0.52917,0.155097 -0.4844,0.192485 -2.06776,0.375755 -3.10106,0.35894 -0.63843,-0.01039 -1.30499,0.07024 -1.48124,0.179168 -0.51794,0.320102 -9.22723,0.38262 -9.42148,0.06763 z m 24.58712,-6.238887 c 0,-0.194028 -0.15875,-0.352778 -0.35278,-0.352778 -0.19403,0 -0.35278,0.15875 -0.35278,0.352778 0,0.194028 0.15875,0.352778 0.35278,0.352778 0.19403,0 0.35278,-0.15875 0.35278,-0.352778 z m 3.175,-4.938889 c 0,-0.194028 -0.07,-0.352778 -0.15557,-0.352778 -0.0856,0 -0.25368,0.15875 -0.3736,0.352778 -0.11992,0.194028 -0.0499,0.352778 0.15557,0.352778 0.20548,0 0.3736,-0.15875 0.3736,-0.352778 z m -49.56528,-2.822222 c 0.11991,-0.194028 0.0499,-0.352778 -0.15557,-0.352778 -0.20548,0 -0.3736,0.15875 -0.3736,0.352778 0,0.194027 0.07,0.352777 0.15557,0.352777 0.0856,0 0.25368,-0.15875 0.3736,-0.352777 z m 57.2146,-15.588368 c -0.11262,-0.281423 -0.19621,-0.19783 -0.21314,0.213136 -0.0153,0.371887 0.0681,0.580246 0.18529,0.463021 0.11722,-0.117225 0.12975,-0.421496 0.0279,-0.676157 z m 2.82222,-5.291667 c -0.11262,-0.281423 -0.19621,-0.19783 -0.21314,0.213136 -0.0153,0.371887 0.0681,0.580246 0.18529,0.463021 0.11722,-0.117225 0.12976,-0.421496 0.0279,-0.676157 z M 167.5542,21.641671 c 0.12245,-0.319104 0.002,-0.529167 -0.30396,-0.529167 -0.30575,0 -0.42642,0.210063 -0.30397,0.529167 0.11169,0.291041 0.24847,0.529166 0.30397,0.529166 0.0555,0 0.19228,-0.238125 0.30396,-0.529166 z m -50.75118,-2.645834 c -0.11992,-0.194027 -0.4071,-0.350346 -0.63819,-0.347375 -0.25245,0.0032 -0.20894,0.141897 0.10902,0.347375 0.67773,0.437983 0.79985,0.437983 0.52917,0 z M 39.396152,60.417828 c 0.0169,-0.410966 0.10052,-0.494558 0.21313,-0.213136 0.10191,0.254661 0.0894,0.558932 -0.0279,0.676157 -0.11722,0.117225 -0.2006,-0.09113 -0.18528,-0.463021 z M 101.5727,16.401096 c -0.29603,-0.165927 -0.99876,-0.209583 -1.5616,-0.09701 -0.586934,0.117387 -1.023361,0.05327 -1.023361,-0.150337 0,-0.195255 -0.515937,-0.355072 -1.146527,-0.355149 -2.07855,-2.52e-4 -3.086806,-0.149848 -3.086806,-0.457992 0,-0.167114 -0.537206,-0.203064 -1.193791,-0.07989 -0.859043,0.161157 -1.247147,0.08491 -1.384071,-0.271904 -0.160256,-0.417621 0.904804,-0.480301 6.750041,-0.39725 3.817175,0.05424 9.199565,0.125284 11.960865,0.157883 2.7613,0.0326 5.10308,0.192819 5.20396,0.356043 0.10088,0.163224 -0.11639,0.218371 -0.48282,0.122549 -0.36642,-0.09582 -0.76367,-0.01655 -0.88278,0.17617 -0.1191,0.192715 -0.51598,0.27209 -0.88194,0.176388 -0.36597,-0.0957 -0.76559,-0.01188 -0.88806,0.18628 -0.12352,0.199868 -0.76955,0.271536 -1.45092,0.160964 -0.68487,-0.111138 -1.22826,-0.05013 -1.22826,0.13789 0,0.185465 -0.51594,0.349228 -1.14653,0.363919 -0.63059,0.01469 -2.46787,0.08215 -4.08284,0.149921 -1.61497,0.06777 -3.17852,-0.01255 -3.47456,-0.178475 z m 15.05393,-1.285814 c 0,-0.194028 0.16812,-0.352778 0.37359,-0.352778 0.20548,0 0.27549,0.15875 0.15557,0.352778 -0.11991,0.194028 -0.28803,0.352778 -0.37359,0.352778 -0.0856,0 -0.15557,-0.15875 -0.15557,-0.352778 z"
       id="path1" /></g></svg>
